Coordinates
version=1
nRows=5
nColumns=40
inDegrees=yes

Units are S.I. units (second, meters, Newtons, ...)
Angles are in degrees.

endheader
time	pelvis_tilt	pelvis_list	pelvis_rotation	pelvis_tx	pelvis_ty	pelvis_tz	hip_flexion_r	hip_adduction_r	hip_rotation_r	knee_angle_r	knee_angle_r_beta	ankle_angle_r	subtalar_angle_r	mtp_angle_r	hip_flexion_l	hip_adduction_l	hip_rotation_l	knee_angle_l	knee_angle_l_beta	ankle_angle_l	subtalar_angle_l	mtp_angle_l	lumbar_extension	lumbar_bending	lumbar_rotation	arm_flex_r	arm_add_r	arm_rot_r	elbow_flex_r	pro_sup_r	wrist_flex_r	wrist_dev_r	arm_flex_l	arm_add_l	arm_rot_l	elbow_flex_l	pro_sup_l	wrist_flex_l	wrist_dev_l
      2.10000000	     -0.95668153	      6.29014028	     -4.66712600	      0.50653193	      0.95740076	      1.01179257	     18.71920644	    -18.70591823	    -17.07157197	    -50.74830351	     -0.88572499	      2.56619123	    -16.04608057	     14.41801041	      4.70002665	     -8.80487139	     13.96001279	    -11.70815774	     -0.20434590	      3.90303161	      7.22761253	     -0.64445312	     -2.45599054	     -6.60148420	      1.33871102	      0.64354952	    -10.30925274	    -11.53589880	     21.49745199	     89.95437384	      0.00000000	      0.00000000	      4.72732180	     12.66512284	      6.91813598	     21.73266550	     89.95437384	      0.00000000	      0.00000000
      2.11000000	     -0.90103586	      5.66859135	     -4.16777299	      0.51291056	      0.95785410	      1.01115711	     19.07802279	    -17.91119113	    -17.71557769	    -49.19482859	     -0.85861173	      2.76511846	    -15.61059759	     14.53934743	      4.06162368	     -8.23846666	     13.19845984	    -11.64515821	     -0.20324635	      4.29102230	      7.13094403	     -0.94663421	     -2.74350899	     -5.92245040	      0.79002711	      0.57031633	    -10.19546557	    -12.47405216	     21.45444623	     89.95437384	      0.00000000	      0.00000000	      5.48117666	     13.07217485	      5.34401261	     22.23637828	     89.95437384	      0.00000000	      0.00000000
      2.12000000	     -1.13342514	      5.64628755	     -3.94027106	      0.51911519	      0.95747381	      1.01040145	     20.19286451	    -17.78763306	    -17.83485288	    -48.01938861	     -0.83809644	      2.93149387	    -15.17246043	     14.34507106	      3.88434859	     -8.27393561	     13.33837776	    -11.63307509	     -0.20303546	      4.51224366	      6.99846852	     -1.01305036	     -2.64128220	     -5.83904083	      0.31045409	      0.45140760	    -10.18191168	    -12.51456467	     21.60609877	     89.95437384	      0.00000000	      0.00000000	      6.10765151	     13.30741050	      5.15323528	     22.63540481	     89.95437384	      0.00000000	      0.00000000
      2.13000000	     -1.37359404	      5.48176833	     -3.71488712	      0.52533771	      0.95698493	      1.00993163	     21.19194221	    -17.44675983	    -17.93988634	    -46.64607871	     -0.81412766	      3.05864509	    -14.61242623	     14.15430446	      3.70064914	     -8.13161709	     13.14536837	    -11.65093257	     -0.20334713	      4.79086710	      6.81496627	     -1.11751530	     -2.50122901	     -5.62582307	     -0.06243697	      0.31589678	    -10.17321574	    -12.67978283	     21.70130463	     89.95437384	      0.00000000	      0.00000000	      6.74873979	     13.55974884	      4.79570764	     23.09952367	     89.95437384	      0.00000000	      0.00000000
      2.14000000	     -1.27865033	      4.77822611	     -3.31363926	      0.53153401	      0.95716586	      1.00968890	     21.46043764	    -16.55606718	    -18.43512841	    -44.92724369	     -0.78412833	      3.11104365	    -13.91149440	     14.09342771	      3.17480571	     -7.40253707	     12.50269200	    -11.84288479	     -0.20669733	      5.32362498	      6.73608897	     -1.50048150	     -2.85337083	     -4.83489358	     -0.45105799	      0.33237782	    -10.07652720	    -13.87418323	     21.58232849	     89.95437384	      0.00000000	      0.00000000	      7.56211523	     13.91310255	      3.31757327	     23.49976317	     89.95437384	      0.00000000	      0.00000000
